<?xml version="1.0" encoding="utf-8"?>
<!-- Generator: Adobe Illustrator 19.1.0, SVG Export Plug-In . SVG Version: 6.00 Build 0)  -->
<svg version="1.1" id="Capa_1" xmlns="http://www.w3.org/2000/svg" xmlns:xlink="http://www.w3.org/1999/xlink" x="0px" y="0px"
	 viewBox="-993 995 512 512" style="enable-background:new -993 995 512 512;" xml:space="preserve">
<g>
	<path d="M-485.5,1480.9l-124.4-124.4c33.4-38.4,53.6-88.4,53.6-143.2c0-120.5-98-218.3-218.3-218.3c-120.5,0-218.3,98-218.3,218.3
		s98,218.3,218.3,218.3c54.7,0,104.8-20.2,143.2-53.6l124.4,124.4c3,3,6.9,4.5,10.8,4.5s7.8-1.5,10.8-4.5
		C-479.6,1496.6-479.6,1486.8-485.5,1480.9z M-962.4,1213.3c0-103.5,84.2-187.7,187.7-187.7c103.5,0,187.7,84.2,187.7,187.7
		s-84.1,187.8-187.7,187.8C-878.2,1401.1-962.4,1316.8-962.4,1213.3z"/>
</g>
</svg>
